<?xml version="1.0" encoding="UTF-8"?>
<svg version="1.1" xmlns="http://www.w3.org/2000/svg" width="719" height="222">
<path d="M0 0 C0.66 -1.65 1.32 -3.3 2 -5 C6.62 -5 11.24 -5 16 -5 C16 22.72 16 50.44 16 79 C11.38 79 6.76 79 2 79 C1.34 77.68 0.68 76.36 0 75 C-0.99966797 75.68835938 -0.99966797 75.68835938 -2.01953125 76.390625 C-14.21701024 84.51090472 -26.45548206 88.69014034 -41.1484375 86.5390625 C-55.19608717 83.70283869 -66.7702256 76.67407459 -74.8125 64.6875 C-82.18102212 52.36103956 -84.96895302 39.23876495 -81.4375 25.1875 C-78.01825393 11.74013162 -69.76840505 1.09256012 -58.0625 -6.375 C-53.22430097 -9.07869946 -48.40459048 -10.81064028 -43 -12 C-42.30648437 -12.1546875 -41.61296875 -12.309375 -40.8984375 -12.46875 C-25.58646846 -14.99207074 -11.4361382 -9.83397391 0 0 Z M-61 16 C-67.19669393 25.83511973 -68.80820926 36.64520181 -66.3515625 47.99609375 C-62.94575731 57.32567122 -55.73859737 64.74744908 -46.9375 69.1875 C-38.70621096 72.65258507 -29.40897221 73.05780808 -21 70 C-12.22407817 66.26043193 -4.63890503 59.98330833 -0.74609375 51.125 C2.80783879 41.00280469 2.74252408 31.40648486 -1.5859375 21.51953125 C-7.01639534 11.84371549 -14.6606734 6.4464422 -25 3 C-40.02108957 1.95994726 -50.61596146 4.14304819 -61 16 Z " fill="#036564" transform="translate(703,78)"/>
<path d="M0 0 C9.69172627 9.4052713 15.54291673 20.95640698 15.98217773 34.50146484 C16.03822367 41.96555458 15.66298321 48.85348793 12.5625 55.75 C12.17191406 56.63816406 11.78132813 57.52632813 11.37890625 58.44140625 C5.2726206 70.87885492 -5.13805204 79.97224192 -18.1875 84.5625 C-32.1059313 88.68468349 -46.17169216 87.21235253 -58.99609375 80.31640625 C-71.58594367 72.23875854 -79.54024008 60.78626772 -83.01953125 46.33203125 C-85.23191394 32.66488213 -82.30689725 19.15431366 -74.4375 7.75 C-65.74452828 -3.95971077 -53.87808481 -10.55012589 -39.55078125 -12.8828125 C-24.62996861 -14.53930703 -11.37346074 -9.55507938 0 0 Z M-51.4375 6.75 C-52.07042969 7.08902344 -52.70335937 7.42804688 -53.35546875 7.77734375 C-60.95618814 12.49213878 -65.85704565 20.71589576 -68.00390625 29.25 C-69.70487623 39.05739446 -68.00316858 47.93057093 -62.8125 56.4375 C-57.08670801 64.44510513 -49.4907718 69.35244769 -39.9140625 71.25 C-29.84039614 72.63548993 -20.6168611 70.44497397 -12.40234375 64.4140625 C-5.21143847 58.32395186 0.00256854 50.44163992 0.80078125 40.90234375 C1.0543948 29.9168724 -1.26856727 21.29021928 -8.37890625 12.7578125 C-15.4065473 5.90352882 -23.94183963 2.47694205 -33.6875 2.375 C-40.43608209 2.47424385 -45.54283918 3.4847674 -51.4375 6.75 Z " fill="#036564" transform="translate(361.4375,78.25)"/>
<path d="M0 0 C0.06948682 13.08237678 0.12280469 26.16470971 0.15543652 39.24723339 C0.17109753 45.32187095 0.19234405 51.39638233 0.22631836 57.47094727 C0.25889582 63.33238784 0.27684973 69.19370698 0.28463173 75.05523109 C0.2901781 77.29236068 0.30100868 79.52948357 0.31719017 81.76656151 C0.33894263 84.89815043 0.34196779 88.02923645 0.34057617 91.16088867 C0.351362 92.08733688 0.36214783 93.0137851 0.3732605 93.9683075 C0.35007439 98.78490263 0.19657786 102.11806533 -3 106 C-5.96825222 107.48412611 -7.66486707 107.3801901 -11 107 C-14.29810194 105.51403328 -17.31021499 103.6012291 -20.375 101.6875 C-22.35382763 100.48511894 -24.33301625 99.28333183 -26.3125 98.08203125 C-27.385 97.42541504 -28.4575 96.76879883 -29.5625 96.09228516 C-35.12754888 92.69411716 -40.74818441 89.38875752 -46.35977173 86.06826782 C-49.7563826 84.05704829 -53.14952109 82.03998794 -56.54296875 80.0234375 C-62.35743256 76.56923338 -68.1726216 73.11625283 -73.98828125 69.6640625 C-75.45979879 68.79052838 -76.93131573 67.91699324 -78.40283203 67.04345703 C-80.52729356 65.78231868 -82.65177087 64.52120696 -84.77630615 63.26019287 C-86.72984137 62.10065361 -88.68328934 60.94096751 -90.63671875 59.78125 C-92.30287231 58.7922168 -92.30287231 58.7922168 -94.00268555 57.78320312 C-96.67223027 56.19500123 -99.3376899 54.60029231 -102 53 C-100.52069424 48.51142156 -97.02736426 46.86122021 -93.125 44.6875 C-92.49980469 44.31560547 -91.87460938 43.94371094 -91.23046875 43.56054688 C-86.58466283 40.92333992 -86.58466283 40.92333992 -84.07470703 41.25244141 C-81.6935254 42.11042895 -79.62174054 43.19513384 -77.421875 44.44921875 C-76.52033691 44.96057373 -75.61879883 45.47192871 -74.68994141 45.9987793 C-73.71976074 46.55605713 -72.74958008 47.11333496 -71.75 47.6875 C-70.73728027 48.2647583 -69.72456055 48.8420166 -68.68115234 49.43676758 C-51.6996 59.13995186 -34.85556004 69.08035746 -18 79 C-18.03330917 78.14302017 -18.06661835 77.28604034 -18.10093689 76.40309143 C-18.40239639 68.29810856 -18.63028304 60.19502398 -18.77718258 52.08570957 C-18.85525736 47.91675517 -18.96094788 43.75245542 -19.1315918 39.58618164 C-19.29548393 35.55920931 -19.384422 31.53668654 -19.42315865 27.50663567 C-19.45072685 25.97547194 -19.50458309 24.44453383 -19.58595085 22.91528511 C-19.8375333 17.98765564 -19.76985886 13.68975412 -18 9 C-13.60338933 4.39899179 -6.4116193 0 0 0 Z " fill="#036665" transform="translate(102,0)"/>
<path d="M0 0 C2.42963158 2.12305362 3.80549713 3.85728575 4.35553741 7.08880043 C4.49353428 9.71146031 4.49445789 12.30486444 4.45410156 14.9309082 C4.45468567 15.92650253 4.45526978 16.92209686 4.45587158 17.94786072 C4.45308901 21.23252451 4.42198787 24.51627634 4.390625 27.80078125 C4.38316325 30.08049524 4.37747001 32.36021565 4.37347412 34.63993835 C4.35821274 40.63568884 4.31892602 46.63105081 4.2746582 52.62664795 C4.23371672 58.74648788 4.21546547 64.86639068 4.1953125 70.98632812 C4.15243271 82.99105597 4.08417483 94.99549566 4 107 C-3.04366269 105.95376158 -8.93942975 102.918259 -14 98 C-15.84699353 92.63952463 -15.66279058 87.48864654 -15.48828125 81.90625 C-15.48646982 80.34826292 -15.49040109 78.79025958 -15.49980164 77.2322998 C-15.5091291 73.1533368 -15.4410375 69.079289 -15.35620117 65.00134277 C-15.28335437 60.83177877 -15.28453906 56.66228754 -15.27929688 52.4921875 C-15.25821785 44.32640605 -15.15526539 36.16432777 -15 28 C-15.95156982 28.57282715 -16.90313965 29.1456543 -17.88354492 29.73583984 C-26.66138349 35.01470376 -35.46704878 40.24016937 -44.33129883 45.37304688 C-49.35779493 48.28523867 -54.37187593 51.21265839 -59.3440094 54.21664429 C-61.71075174 55.64375459 -64.08579142 57.05668751 -66.46200562 58.46795654 C-68.16040298 59.48379287 -69.84754099 60.51837805 -71.53442383 61.55322266 C-72.56849365 62.16472168 -73.60256348 62.7762207 -74.66796875 63.40625 C-75.57828857 63.95603516 -76.4886084 64.50582031 -77.42651367 65.07226562 C-80 66 -80 66 -82.67260742 65.25415039 C-85.20941449 63.88715386 -87.67813941 62.46024046 -90.125 60.9375 C-92.80251948 59.27320598 -94.99972402 58.00009199 -98 57 C-98 56.01 -98 55.02 -98 54 C-96.01639951 52.55600411 -94.10957253 51.35228293 -91.984375 50.1484375 C-91.35038788 49.777258 -90.71640076 49.40607849 -90.0632019 49.02365112 C-87.96445643 47.79742816 -85.85725734 46.58652669 -83.75 45.375 C-81.54121721 44.08877961 -79.33479382 42.79857484 -77.12844849 41.50817871 C-75.62306495 40.6280863 -74.11693193 39.74927471 -72.6100769 38.8717041 C-66.13253716 35.09559833 -59.72426118 31.21324503 -53.33169556 27.29553223 C-40.52027103 19.44717453 -27.56112188 11.88889604 -14.51000977 4.44775391 C-12.78341151 3.4518656 -11.08006462 2.41490832 -9.39819336 1.34521484 C-6.03565539 -0.54092831 -3.78792157 -0.55097041 0 0 Z " fill="#026665" transform="translate(98,115)"/>
<path d="M0 0 C2.8998323 -0.21680989 5.78347867 -0.37461435 8.6875 -0.5 C9.50412109 -0.56703125 10.32074219 -0.6340625 11.16210938 -0.703125 C13.63921756 -0.78335522 15.61693373 -0.6883101 18 0 C20.34202641 2.75427992 21.49304172 4.77744084 23 8 C23.92815523 9.79917765 24.85646772 11.59827531 25.78691101 13.39627075 C27.6021488 16.93379328 29.35993777 20.49975752 31.125 24.0625 C31.88364717 25.58665918 32.64243743 27.11074714 33.40136719 28.63476562 C38.60550653 39.10354786 43.7066472 49.61787015 48.703125 60.1875 C51.06013888 65.1629643 53.51913599 70.08532736 56 75 C58.73186321 71.64418307 60.63385319 67.99644076 62.53759766 64.13598633 C63.04790779 63.1133947 63.04790779 63.1133947 63.56852722 62.07014465 C64.68740182 59.82592624 65.80066938 57.57897341 66.9140625 55.33203125 C67.69168029 53.77052351 68.46971149 52.20922159 69.24813843 50.64811707 C71.29295673 46.54519593 73.33330422 42.44006934 75.37237549 38.33428955 C78.64230336 31.7512554 81.91766441 25.17092938 85.19556808 18.59186363 C86.34139823 16.28995074 87.48450264 13.98669884 88.62734985 11.68330383 C89.32520598 10.28076727 90.02314839 8.87827363 90.72119141 7.47583008 C91.04015884 6.83115784 91.35912628 6.1864856 91.6877594 5.52227783 C93.88636632 1.11363368 93.88636632 1.11363368 95 0 C96.34267413 -0.08631874 97.68974322 -0.10706473 99.03515625 -0.09765625 C99.84404297 -0.09443359 100.65292969 -0.09121094 101.48632812 -0.08789062 C102.33646484 -0.07951172 103.18660156 -0.07113281 104.0625 -0.0625 C104.91650391 -0.05798828 105.77050781 -0.05347656 106.65039062 -0.04882812 C108.76695663 -0.03700373 110.88348685 -0.01906769 113 0 C109.99230753 8.03188902 106.30053274 15.64589813 102.43359375 23.29296875 C101.79263715 24.56858173 101.15210817 25.84440965 100.51197815 27.12043762 C98.83129197 30.46859739 97.1461718 33.8145027 95.45965576 37.159729 C92.4666183 43.09737059 89.48002483 49.03824656 86.49609375 54.98046875 C86.01319948 55.94123636 86.01319948 55.94123636 85.52054977 56.92141342 C80.6883758 66.54092161 75.96807427 76.20771227 71.38902283 85.95097351 C70.60342146 87.61631225 69.80630441 89.27630122 68.99417114 90.92886353 C68.18291014 92.61894703 67.4663591 94.35421649 66.77905273 96.09838867 C64.60281642 98.42454548 63.87148867 98.33504589 60.76953125 98.48828125 C59.11648217 98.45508749 57.46379711 98.39551184 55.8125 98.3125 C54.5450293 98.27866211 54.5450293 98.27866211 53.25195312 98.24414062 C51.16721202 98.18524963 49.08338196 98.09556798 47 98 C46.37677856 96.70811768 46.37677856 96.70811768 45.7409668 95.39013672 C37.32184028 77.949381 28.81375647 60.55816339 20.125 43.25 C14.78907046 32.61438861 9.46733223 21.97495809 4.3125 11.25 C3.63501709 9.84862793 3.63501709 9.84862793 2.94384766 8.41894531 C2.54601074 7.58459961 2.14817383 6.75025391 1.73828125 5.890625 C1.39837158 5.17938477 1.05846191 4.46814453 0.70825195 3.73535156 C0 2 0 2 0 0 Z " fill="#036564" transform="translate(156,65)"/>
<path d="M0 0 C4.95 0 9.9 0 15 0 C15 6.27 15 12.54 15 19 C18.02027344 18.98839844 21.04054688 18.97679688 24.15234375 18.96484375 C27.0646962 18.95705391 29.9770475 18.95097674 32.8894043 18.94506836 C34.91968298 18.94002722 36.94995802 18.93319443 38.98022461 18.92456055 C41.89177347 18.91248533 44.8032745 18.90676966 47.71484375 18.90234375 C48.6283812 18.89718246 49.54191864 18.89202118 50.48313904 18.88670349 C52.65575427 18.88650832 54.82827296 18.93788195 57 19 C58 20 58 20 58.1328125 23.125 C58.13023437 24.40375 58.12765625 25.6825 58.125 27 C58.12886719 28.918125 58.12886719 28.918125 58.1328125 30.875 C58 34 58 34 57 35 C53.89748799 35.08874135 50.8173188 35.11518455 47.71484375 35.09765625 C46.78402481 35.0962413 45.85320587 35.09482635 44.8941803 35.09336853 C41.90858809 35.08775172 38.92306971 35.0751964 35.9375 35.0625 C33.91862087 35.05748716 31.89974057 35.05292388 29.88085938 35.04882812 C24.92054428 35.03777683 19.96028468 35.02050095 15 35 C15.06722349 41.97462484 15.15711742 48.94869896 15.26245117 55.92285156 C15.29561573 58.29322758 15.32367378 60.66368095 15.34643555 63.03417969 C15.38013688 66.45020376 15.43246209 69.8655243 15.48828125 73.28125 C15.49467117 74.33364868 15.5010611 75.38604736 15.50764465 76.47033691 C15.63451847 82.88277406 15.85590076 89.54598691 20.41596985 94.55554199 C25.22415421 98.75035412 29.28264709 99.36809895 35.4296875 99.26953125 C39.36629561 98.85672584 42.12689547 97.74320353 45 95 C47.87490786 90.80158273 48.99907741 87.00461297 50 82 C54.95 82 59.9 82 65 82 C65 92.33297915 62.41473498 99.5534166 55.22265625 107.0546875 C47.10311958 114.16106581 39.30770181 115.47890446 28.76953125 115.28125 C23.75400498 114.90703457 20.23715434 113.62341124 16 111 C15.37738281 110.649375 14.75476563 110.29875 14.11328125 109.9375 C6.92280382 105.4454013 2.97064149 98.3362082 0.64004517 90.3636322 C-0.82019255 82.68963843 -0.35937236 74.77391214 -0.29296875 66.9921875 C-0.2873652 65.05592174 -0.28309869 63.11965169 -0.28010559 61.18338013 C-0.2687166 56.11661794 -0.23930127 51.05011865 -0.20599365 45.98345947 C-0.17516385 40.80150914 -0.16157279 35.61951584 -0.14648438 30.4375 C-0.11442532 20.29155192 -0.06330179 10.14579793 0 0 Z " fill="#026564" transform="translate(401,46)"/>
<path d="M0 0 C4.95 0 9.9 0 15 0 C15.33 6.27 15.66 12.54 16 19 C18.87589844 18.98839844 21.75179688 18.97679688 24.71484375 18.96484375 C27.48819875 18.95705375 30.26155254 18.95097667 33.03491211 18.94506836 C34.96818585 18.94002744 36.90145576 18.93319481 38.8347168 18.92456055 C41.60726872 18.91248435 44.37977041 18.90676943 47.15234375 18.90234375 C48.45702858 18.89460182 48.45702858 18.89460182 49.78807068 18.88670349 C51.85905814 18.88650815 53.92994324 18.93791832 56 19 C59.77859468 22.77859468 57 29.65626015 57 35 C43.14 35 29.28 35 15 35 C15.02811868 42.40288067 15.07126256 49.80254104 15.15258789 57.20458984 C15.17573028 59.7204747 15.19015472 62.23645592 15.19555664 64.75244141 C15.20487304 68.37723586 15.24592711 72.00052238 15.29296875 75.625 C15.2890361 76.74302002 15.28510345 77.86104004 15.28105164 79.01293945 C15.40826498 85.88095983 16.37229944 90.75041787 21 96 C25.87548272 99.62826621 31.13373408 99.81811632 37 99 C41.19394478 97.66303089 44.03669756 95.38465897 46.3125 91.625 C48.23411695 87.67660248 48.23411695 87.67660248 50 82 C54.62 82 59.24 82 64 82 C65.71201193 87.1360358 63.74326362 92.01109649 62 97 C57.80788733 104.63699076 50.79372237 111.01789585 42.71484375 114.3046875 C34.37998631 116.43937041 25.09360005 116.09326292 17.27734375 112.38671875 C9.41896173 107.60159762 3.06666039 101.1244278 0.45282841 92.11372757 C-0.31164773 88.54528032 -0.12931813 84.91770431 -0.11352539 81.28417969 C-0.11367142 80.40577423 -0.11381744 79.52736877 -0.1139679 78.62234497 C-0.11327185 75.7221631 -0.10549386 72.82204564 -0.09765625 69.921875 C-0.09579098 67.90977005 -0.09436759 65.89766465 -0.09336853 63.88555908 C-0.08955198 58.59194686 -0.07972902 53.29836211 -0.06866455 48.00476074 C-0.05843192 42.60213594 -0.05386694 37.1995067 -0.04882812 31.796875 C-0.038106 21.1979046 -0.0210399 10.59895459 0 0 Z " fill="#046463" transform="translate(489,46)"/>
<path d="M0 0 C5.28 0 10.56 0 16 0 C16 32.34 16 64.68 16 98 C10.72 98 5.44 98 0 98 C0 65.66 0 33.32 0 0 Z " fill="#026766" transform="translate(582,65)"/>
<path d="M0 0 C0 32.34 0 64.68 0 98 C-5.28 98 -10.56 98 -16 98 C-15.67 68.96 -15.34 39.92 -15 10 C-14.34 9.67 -13.68 9.34 -13 9 C-13 37.71 -13 66.42 -13 96 C-9.37 96 -5.74 96 -2 96 C-2 65.31 -2 34.62 -2 3 C-3.32 2.34 -4.64 1.68 -6 1 C-4 0 -4 0 0 0 Z " fill="#135D5B" transform="translate(598,65)"/>
<path d="M0 0 C1.98 0 3.96 0 6 0 C5.67 0.66 5.34 1.32 5 2 C4.01 2 3.02 2 2 2 C2.03809714 13.46618714 2.09751776 24.93204879 2.18390274 36.39797974 C2.22335369 41.72252608 2.25555396 47.04690763 2.27099609 52.37158203 C2.28617822 57.51353423 2.32065177 62.6550333 2.36830902 67.79678345 C2.38310671 69.75505629 2.39104009 71.71339384 2.39188385 73.67172241 C2.3942601 76.42226042 2.42139245 79.17155285 2.45410156 81.921875 C2.4490712 82.72532852 2.44404083 83.52878204 2.43885803 84.35658264 C2.58614511 92.40075996 5.99450921 98.46979496 11.2734375 104.3984375 C13.7551573 106.70048528 16.5022819 108.33364906 19.4609375 109.95703125 C20.22277344 110.47330078 20.22277344 110.47330078 21 111 C21 111.66 21 112.32 21 113 C13.46044454 110.48681485 8.7741126 106.25522721 4.359375 99.76953125 C-0.8725109 89.11031543 -0.39199781 78.59723327 -0.29296875 66.9921875 C-0.2873652 65.05592174 -0.28309869 63.11965169 -0.28010559 61.18338013 C-0.2687166 56.11661794 -0.23930127 51.05011865 -0.20599365 45.98345947 C-0.17516385 40.80150914 -0.16157279 35.61951584 -0.14648438 30.4375 C-0.11442532 20.29155192 -0.06330179 10.14579793 0 0 Z " fill="#105B5A" transform="translate(401,46)"/>
<path d="M0 0 C0.66 0 1.32 0 2 0 C-0.28279463 7.59867302 -3.52686594 14.44047806 -7.125 21.5 C-7.67542969 22.59570312 -8.22585937 23.69140625 -8.79296875 24.8203125 C-12.84527726 32.84527726 -12.84527726 32.84527726 -14 34 C-15.34267413 34.08631874 -16.68974322 34.10706473 -18.03515625 34.09765625 C-18.84404297 34.09443359 -19.65292969 34.09121094 -20.48632812 34.08789062 C-21.33646484 34.07951172 -22.18660156 34.07113281 -23.0625 34.0625 C-23.91650391 34.05798828 -24.77050781 34.05347656 -25.65039062 34.04882812 C-27.76695663 34.03700373 -29.88348685 34.01906769 -32 34 C-35 28.25 -35 28.25 -35 26 C-33.68 26.33 -32.36 26.66 -31 27 C-30.67 28.32 -30.34 29.64 -30 31 C-25.05 31.33 -20.1 31.66 -15 32 C-14.01 28.535 -14.01 28.535 -13 25 C-12.34 24.67 -11.68 24.34 -11 24 C-9.86897474 21.65961814 -9.86897474 21.65961814 -8.875 18.9375 C-8.34519531 17.55884766 -8.34519531 17.55884766 -7.8046875 16.15234375 C-7.53914063 15.44207031 -7.27359375 14.73179687 -7 14 C-6.34 14 -5.68 14 -5 14 C-5.33 13.01 -5.66 12.02 -6 11 C-4.78515625 8.30078125 -4.78515625 8.30078125 -3.0625 5.3125 C-2.49660156 4.31863281 -1.93070313 3.32476562 -1.34765625 2.30078125 C-0.68056641 1.16189453 -0.68056641 1.16189453 0 0 Z " fill="#0E5C5A" transform="translate(235,129)"/>
<path d="M0 0 C14.19 0 28.38 0 43 0 C43 0.33 43 0.66 43 1 C29.14 1 15.28 1 1 1 C1.07414652 7.97488668 1.15711481 14.948526 1.26245117 21.92285156 C1.29561573 24.29322758 1.32367378 26.66368095 1.34643555 29.03417969 C1.38013688 32.45020376 1.43246209 35.8655243 1.48828125 39.28125 C1.49467117 40.33364868 1.5010611 41.38604736 1.50764465 42.47033691 C1.63979047 49.14923038 2.06383554 55.57090282 6.60546875 60.875 C7.12753906 61.24625 7.64960938 61.6175 8.1875 62 C9.115625 62.66 10.04375 63.32 11 64 C9.02 64.495 9.02 64.495 7 65 C6.34 63.68 5.68 62.36 5 61 C4.34 61 3.68 61 3 61 C-0.51585752 54.54817841 -0.39086547 48.74352002 -0.29296875 41.50390625 C-0.28872391 40.31522446 -0.28447906 39.12654266 -0.28010559 37.90184021 C-0.26337251 34.12182543 -0.2257289 30.34235245 -0.1875 26.5625 C-0.17244628 23.99284627 -0.15875908 21.42318414 -0.14648438 18.85351562 C-0.11604421 12.568636 -0.05730931 6.28492131 0 0 Z " fill="#175D5D" transform="translate(415,80)"/>
<path d="M0 0 C9.06856924 9.71632418 9.55416765 22.3178665 9.13623047 34.86376953 C8.64647902 42.54356381 5.33877425 49.71378912 1 56 C0.01 56.495 0.01 56.495 -1 57 C-0.38364677 54.09800355 0.55036069 51.82950524 2 49.25 C4.14346294 45.12557491 4.59623229 41.60295186 5 37 C5.495 36.505 5.495 36.505 6 36 C6.62541167 25.22367592 6.27112449 16.42109622 1.3125 6.6875 C0 4 0 4 0 0 Z " fill="#105C59" transform="translate(368,87)"/>
<path d="M0 0 C0.51304688 0.24105469 1.02609375 0.48210938 1.5546875 0.73046875 C-0.91160416 2.37466319 -3.37265892 3.88905621 -5.9453125 5.35546875 C-6.71875 5.80148438 -7.4921875 6.2475 -8.2890625 6.70703125 C-10.4453125 7.73046875 -10.4453125 7.73046875 -13.4453125 7.73046875 C-13.4453125 9.05046875 -13.4453125 10.37046875 -13.4453125 11.73046875 C-10.9703125 12.72046875 -10.9703125 12.72046875 -8.4453125 13.73046875 C-8.4453125 14.39046875 -8.4453125 15.05046875 -8.4453125 15.73046875 C-7.86104492 15.85429932 -7.27677734 15.97812988 -6.67480469 16.10571289 C-2.99616372 17.13655413 0.05315293 19.20414021 3.3046875 21.16796875 C4.00207031 21.57595703 4.69945313 21.98394531 5.41796875 22.40429688 C7.1672862 23.45354501 8.86619449 24.5859057 10.5546875 25.73046875 C10.5546875 26.39046875 10.5546875 27.05046875 10.5546875 27.73046875 C6.73346357 26.30932721 3.32846545 24.53857343 -0.18359375 22.47265625 C-1.78364258 21.53486328 -1.78364258 21.53486328 -3.41601562 20.578125 C-4.51880859 19.92714844 -5.62160156 19.27617188 -6.7578125 18.60546875 C-8.44100586 17.61740234 -8.44100586 17.61740234 -10.15820312 16.609375 C-12.92239906 14.98614505 -15.68467882 13.35974721 -18.4453125 11.73046875 C-16.54888097 7.34015501 -13.62862158 5.67855436 -9.5703125 3.41796875 C-8.94511719 3.04607422 -8.31992188 2.67417969 -7.67578125 2.29101562 C-3.04799691 -0.33596132 -3.04799691 -0.33596132 0 0 Z " fill="#105959" transform="translate(18.4453125,41.26953125)"/>
<path d="M0 0 C3.3 0 6.6 0 10 0 C10.76720178 8.63102002 7.83620038 16.25978996 2.3125 22.875 C-1.48618812 26.82279551 -5.730539 30.27652967 -11 32 C-13.265625 31.6171875 -13.265625 31.6171875 -15 31 C-9.51591635 27.17389513 -9.51591635 27.17389513 -6.5546875 26.17578125 C-3.33052584 24.6918781 -1.94819264 22.87566574 0.1875 20.0625 C0.86167969 19.18722656 1.53585937 18.31195313 2.23046875 17.41015625 C5.04238177 13.58024382 6.35536877 10.98526101 7.125 6.3125 C7.29257812 5.31863281 7.46015625 4.32476562 7.6328125 3.30078125 C7.75398438 2.54152344 7.87515625 1.78226563 8 1 C5.36 1 2.72 1 0 1 C0 0.67 0 0.34 0 0 Z " fill="#0D5D5A" transform="translate(456,128)"/>
<path d="M0 0 C1.59424805 -0.01836914 1.59424805 -0.01836914 3.22070312 -0.03710938 C4.23970703 -0.03904297 5.25871094 -0.04097656 6.30859375 -0.04296875 C7.24372803 -0.04707764 8.1788623 -0.05118652 9.14233398 -0.05541992 C11.5625 0.1875 11.5625 0.1875 14.5625 2.1875 C15.985625 2.5896875 15.985625 2.5896875 17.4375 3 C21.16831879 4.41771114 22.90250385 6.24750425 25.5625 9.1875 C26.325625 9.909375 27.08875 10.63125 27.875 11.375 C29.5625 13.1875 29.5625 13.1875 29.5625 15.1875 C30.2225 15.1875 30.8825 15.1875 31.5625 15.1875 C32.26156942 16.78665881 32.94639468 18.39205045 33.625 20 C34.00785156 20.89332031 34.39070313 21.78664063 34.78515625 22.70703125 C35.5625 25.1875 35.5625 25.1875 34.5625 28.1875 C32.83962542 25.60318813 31.56865011 23.17122548 30.25 20.375 C25.61147239 11.16478236 19.46767792 5.96499494 9.68359375 2.52734375 C6.51004328 2.01887434 3.39898273 2.05608985 0.1875 2.0625 C-1.09898437 2.05992188 -2.38546875 2.05734375 -3.7109375 2.0546875 C-7.0549251 2.17386526 -10.15847949 2.54793872 -13.4375 3.1875 C-13.4375 2.5275 -13.4375 1.8675 -13.4375 1.1875 C-9.4488168 -0.8068416 -4.38515918 0.00264964 0 0 Z " fill="#145C5A" transform="translate(327.4375,79.8125)"/>
<path d="M0 0 C0.45375 0.5775 0.9075 1.155 1.375 1.75 C-2.625 0.41666667 -6.625 -0.91666667 -10.625 -2.25 C-10.625 -2.91 -10.625 -3.57 -10.625 -4.25 C-20.15465219 -5.98266403 -29.27413417 -5.71785737 -38.625 -3.25 C-39.5325 -3.105625 -40.44 -2.96125 -41.375 -2.8125 C-44.1606275 -2.11609312 -46.1891354 -0.7489936 -48.625 0.75 C-50.9375 1.4375 -50.9375 1.4375 -52.625 1.75 C-52.955 1.09 -53.285 0.43 -53.625 -0.25 C-37.5701551 -8.71351985 -15.2755876 -13.0933608 0 0 Z " fill="#125B5B" transform="translate(696.625,73.25)"/>
<path d="M0 0 C0.66 0 1.32 0 2 0 C0.39326942 5.43520824 -2.02117404 10.29926301 -4.5703125 15.3359375 C-5.0114035 16.21528961 -5.45249451 17.09464172 -5.9069519 18.00064087 C-7.30920644 20.79400295 -8.71701416 23.58452311 -10.125 26.375 C-11.07979562 28.27455439 -12.03422675 30.17429203 -12.98828125 32.07421875 C-15.32130391 36.71827638 -17.6588857 41.36001665 -20 46 C-21.20126577 42.39620268 -20.71657991 41.69732392 -19.25 38.3125 C-17.89398786 35.12680024 -16.62086505 31.96291675 -15.5 28.6875 C-14 25 -14 25 -12.12890625 22.66796875 C-6.84182014 16.04213423 -3.11012056 7.86677554 0 0 Z " fill="#135C5A" transform="translate(263,73)"/>
<path d="M0 0 C0 3.16785869 -0.55555175 4.28103859 -2 7 C-3.06782486 10.20347459 -3.12058306 12.48187823 -3.11352539 15.84838867 C-3.11344986 17.0494072 -3.11337433 18.25042572 -3.11329651 19.48783875 C-3.10813522 20.78478165 -3.10297394 22.08172455 -3.09765625 23.41796875 C-3.09579077 24.75889534 -3.09436748 26.09982261 -3.09336853 27.44075012 C-3.08955356 30.96709073 -3.07973199 34.49339004 -3.06866455 38.01971436 C-3.0584285 41.61925701 -3.05386621 45.21880635 -3.04882812 48.81835938 C-3.0381088 55.87892313 -3.02104462 62.93945887 -3 70 C-3.33 70 -3.66 70 -4 70 C-4.24641834 61.31665458 -4.46569523 52.63317379 -4.65021229 43.94829082 C-4.73674479 39.91564782 -4.83266249 35.88368164 -4.94995117 31.85180664 C-5.0627701 27.96175546 -5.15103672 24.07185449 -5.22220421 20.18082619 C-5.25370567 18.69544062 -5.29409589 17.21021645 -5.34345436 15.725317 C-5.41103109 13.6469258 -5.44713897 11.57020727 -5.47583008 9.4909668 C-5.50469803 8.30738083 -5.53356598 7.12379486 -5.56330872 5.90434265 C-5 3 -5 3 -2.47026062 1.09431458 C-1.65507462 0.73319077 -0.83988861 0.37206696 0 0 Z " fill="#045D5B" transform="translate(89,6)"/>
<path d="M0 0 C0.66 0 1.32 0 2 0 C1.62537525 7.49249503 -3.17898047 12.52695999 -8.5 17.375 C-11.45963966 19.80071803 -14.24839109 21.08497344 -18 22 C-18 21.34 -18 20.68 -18 20 C-15.35261084 18.5393715 -14.10551666 18 -11 18 C-11 17.34 -11 16.68 -11 16 C-8.625 13.375 -8.625 13.375 -6 11 C-5.34 11 -4.68 11 -4 11 C-4.33 9.02 -4.66 7.04 -5 5 C-6.65 4.67 -8.3 4.34 -10 4 C-6.25 1 -6.25 1 -4 1 C-3.67 1.66 -3.34 2.32 -3 3 C-2.01 2.67 -1.02 2.34 0 2 C0 1.34 0 0.68 0 0 Z " fill="#016564" transform="translate(550,137)"/>
<path d="M0 0 C1.32 0 2.64 0 4 0 C5.14346098 3.43038294 5.120116 6.0563175 5.11352539 9.67456055 C5.11367142 10.347995 5.11381744 11.02142944 5.1139679 11.715271 C5.11327175 13.93911979 5.10549332 16.16288461 5.09765625 18.38671875 C5.09579101 19.92942764 5.09436761 21.47213711 5.09336853 23.0148468 C5.08955169 27.07383868 5.07972851 31.13279473 5.06866455 35.19177246 C5.05843252 39.33422359 5.05386707 43.4766805 5.04882812 47.61914062 C5.03810551 55.74611018 5.02103907 63.87305063 5 72 C4.34 72 3.68 72 3 72 C2.67 48.9 2.34 25.8 2 2 C0.02 2.99 0.02 2.99 -2 4 C-1.34 2.68 -0.68 1.36 0 0 Z " fill="#196160" transform="translate(81,141)"/>
<path d="M0 0 C0.33 0 0.66 0 1 0 C1.00142502 0.62116699 1.00285004 1.24233398 1.00431824 1.88232422 C1.02406867 8.37202604 1.07845701 14.86079404 1.15258789 21.35009766 C1.17572498 23.76897472 1.19015347 26.18795191 1.19555664 28.60693359 C1.20487702 32.09275403 1.24593905 35.57700877 1.29296875 39.0625 C1.2890361 40.13677246 1.28510345 41.21104492 1.28105164 42.31787109 C1.4096937 49.00079485 2.38990159 53.94870106 7 59 C10.11720751 61.02212048 10.11720751 61.02212048 13 62 C10.30836841 63.09659065 9.23946523 63.09578609 6.5 62 C2.48168556 58.78534845 0.31305721 55.40817257 -0.34777832 50.32473755 C-0.46206443 47.11655856 -0.44962195 43.93233468 -0.390625 40.72265625 C-0.38496521 39.5561705 -0.37930542 38.38968475 -0.37347412 37.18785095 C-0.35116584 33.47897513 -0.30097707 29.77108159 -0.25 26.0625 C-0.22992795 23.54102962 -0.21167842 21.01954403 -0.1953125 18.49804688 C-0.1513191 12.3316987 -0.08446137 6.16591955 0 0 Z " fill="#105A59" transform="translate(503,83)"/>
<path d="M0 0 C5.41375926 0.27762868 8.47147505 2.54795355 12.7421875 5.56640625 C15.77676661 7.49320648 18.50312751 8.25598458 22 9 C22.33 10.32 22.66 11.64 23 13 C23.99 13 24.98 13 26 13 C26 13.66 26 14.32 26 15 C29.93774177 15.36630156 31.56539771 15.30233203 34.875 13 C35.926875 12.01 35.926875 12.01 37 11 C36.6875 12.875 36.6875 12.875 36 15 C32.48773381 17.34151079 31.13338714 17.38707304 27 17 C24.37866211 15.87011719 24.37866211 15.87011719 21.77734375 14.296875 C20.82666016 13.72839844 19.87597656 13.15992187 18.89648438 12.57421875 C17.92001953 11.97222656 16.94355469 11.37023437 15.9375 10.75 C14.95716797 10.16347656 13.97683594 9.57695313 12.96679688 8.97265625 C8.39741164 6.21179213 4.12634967 3.40007149 0 0 Z " fill="#165A57" transform="translate(64,90)"/>
<path d="M0 0 C2.6875 -0.5 2.6875 -0.5 6 0 C7.24804688 1.46923828 7.24804688 1.46923828 8.40625 3.4453125 C9.04663208 4.53537598 9.04663208 4.53537598 9.69995117 5.64746094 C11.83478661 9.51061103 13.85437103 13.41964464 15.8125 17.375 C16.42254883 18.58349609 16.42254883 18.58349609 17.04492188 19.81640625 C17.42841797 20.58597656 17.81191406 21.35554688 18.20703125 22.1484375 C18.5522583 22.84114746 18.89748535 23.53385742 19.25317383 24.24755859 C20 26 20 26 20 28 C17 27 17 27 16.04296875 25.35546875 C15.76066406 24.64003906 15.47835937 23.92460938 15.1875 23.1875 C13.55226047 19.26921451 11.80884104 15.43716256 9.9375 11.625 C9.20853516 10.12839844 9.20853516 10.12839844 8.46484375 8.6015625 C6.70856903 5.4824186 5.19954939 3.5997747 2 2 C1.67 2.66 1.34 3.32 1 4 C0.67 2.68 0.34 1.36 0 0 Z " fill="#0C5C5B" transform="translate(168,65)"/>
<path d="M0 0 C0.66 0.33 1.32 0.66 2 1 C0.75007457 7.69007709 -0.43702878 12.79450625 -6.1171875 16.91796875 C-11.86911568 20.22353744 -17.57159512 20.26238387 -24 20 C-24.33 19.01 -24.66 18.02 -25 17 C-24.14277344 17.04640625 -23.28554688 17.0928125 -22.40234375 17.140625 C-12.92534646 17.50880547 -12.92534646 17.50880547 -5 13 C-2.28618345 9.00025192 -0.60197364 4.81578912 0 0 Z " fill="#0F5A57" transform="translate(451,128)"/>
<path d="M0 0 C1.9375 1.375 1.9375 1.375 3 3 C3 3.66 3 4.32 3 5 C2.34 5 1.68 5 1 5 C1 4.34 1 3.68 1 3 C-6.22023368 2.34361512 -9.94656423 4.2696184 -16 8 C-18.01511103 9.11457566 -20.03602451 10.21872284 -22.0625 11.3125 C-23.00222656 11.82425781 -23.94195312 12.33601563 -24.91015625 12.86328125 C-25.59980469 13.23839844 -26.28945312 13.61351562 -27 14 C-25.39236275 9.17708824 -21.13364626 7.7681926 -16.875 5.3125 C-15.61042969 4.54583008 -15.61042969 4.54583008 -14.3203125 3.76367188 C-9.29483094 0.8412451 -5.8355726 -0.81197174 0 0 Z " fill="#115754" transform="translate(98,115)"/>
<path d="M0 0 C2.25299489 2.83577175 3.92357476 5.6472292 5.48046875 8.9140625 C5.92197266 9.83960937 6.36347656 10.76515625 6.81835938 11.71875 C7.27017578 12.6778125 7.72199219 13.636875 8.1875 14.625 C8.65091797 15.59179688 9.11433594 16.55859375 9.59179688 17.5546875 C13 24.74253268 13 24.74253268 13 27 C11.0625 26.25 11.0625 26.25 9 25 C8.65097942 23.67068682 8.32151658 22.33623201 8 21 C7.08041798 19.02317398 6.11777614 17.06609962 5.125 15.125 C4.61195313 14.11695312 4.09890625 13.10890625 3.5703125 12.0703125 C2.49345718 9.96481926 1.38206828 7.87673745 0.2421875 5.8046875 C-1 3 -1 3 0 0 Z " fill="#0D5A57" transform="translate(188,93)"/>
<path d="M0 0 C0.33 0.66 0.66 1.32 1 2 C0.4225 2.86625 -0.155 3.7325 -0.75 4.625 C-1.11480469 5.17800781 -1.47960937 5.73101562 -1.85546875 6.30078125 C-2.88625976 7.8311365 -3.97135515 9.3245752 -5.0625 10.8125 C-8.48208799 16.43827378 -10.16439726 22.4822986 -11 29 C-11.66 28.67 -12.32 28.34 -13 28 C-12.78789376 17.39468818 -6.85359865 7.77528951 0 0 Z " fill="#0F5B59" transform="translate(292,80)"/>
<path d="M0 0 C0 0.66 0 1.32 0 2 C-0.99 2 -1.98 2 -3 2 C-3 2.66 -3 3.32 -3 4 C-13.78526815 7.06586303 -21.57015725 8.55120411 -32 4 C-32 3.34 -32 2.68 -32 2 C-31.34515625 2.15597656 -30.6903125 2.31195313 -30.015625 2.47265625 C-18.32973679 4.96498551 -10.47538948 0 0 0 Z " fill="#125C58" transform="translate(688,145)"/>
<path d="M0 0 C2.00263886 2.38409388 3.15427874 4.38937014 4.3125 7.3125 C7.18229285 14.22071269 12.0032553 18.41377117 18.4609375 21.95703125 C18.96882813 22.30121094 19.47671875 22.64539063 20 23 C20 23.66 20 24.32 20 25 C11.36483169 22.12161056 6.34556446 16.85699581 2 9 C0.41401512 5.56281539 0 3.89544255 0 0 Z " fill="#105B58" transform="translate(402,134)"/>
<path d="M0 0 C0 0.66 0 1.32 0 2 C-2.21731936 3.39820138 -4.44538154 4.76763358 -6.6875 6.125 C-7.62625977 6.72248047 -7.62625977 6.72248047 -8.58398438 7.33203125 C-13.30956879 10.15253713 -13.30956879 10.15253713 -16.6875 9.40625 C-17.8321875 8.71015625 -17.8321875 8.71015625 -19 8 C-19.73863281 7.57460937 -20.47726563 7.14921875 -21.23828125 6.7109375 C-21.92277344 6.27007812 -22.60726563 5.82921875 -23.3125 5.375 C-24.00988281 4.92898437 -24.70726562 4.48296875 -25.42578125 4.0234375 C-25.94527344 3.68570313 -26.46476562 3.34796875 -27 3 C-24 2 -24 2 -21.625 2.99609375 C-20.75875 3.47175781 -19.8925 3.94742188 -19 4.4375 C-15.22861403 6.54836007 -15.22861403 6.54836007 -11 7 C-11 6.34 -11 5.68 -11 5 C-8.69 4.34 -6.38 3.68 -4 3 C-4 2.34 -4 1.68 -4 1 C-2 0 -2 0 0 0 Z " fill="#115A57" transform="translate(32,171)"/>
<path d="M0 0 C0.66 0.33 1.32 0.66 2 1 C1.67 1.639375 1.34 2.27875 1 2.9375 C-0.07271225 4.76794567 -0.07271225 4.76794567 0 6 C-1.7015625 6.3403125 -1.7015625 6.3403125 -3.4375 6.6875 C-7.69194421 7.73788676 -11.1637393 9.56422031 -14.921875 11.78125 C-16.91076596 12.94766725 -18.92731516 13.99166683 -21 15 C-19.78250628 11.34751884 -18.82476606 10.98878524 -15.59765625 9.046875 C-14.70755859 8.510625 -13.81746094 7.974375 -12.90039062 7.421875 C-11.96388672 6.87015625 -11.02738281 6.3184375 -10.0625 5.75 C-9.12986328 5.1828125 -8.19722656 4.615625 -7.23632812 4.03125 C-2.05402947 0.94360424 -2.05402947 0.94360424 0 0 Z " fill="#0D5B57" transform="translate(55,136)"/>
<path d="M0 0 C0.90621094 0.51949219 1.81242187 1.03898437 2.74609375 1.57421875 C9.47339291 5.42684075 16.20778253 9.26248351 23 13 C20 14 20 14 16.625 12.5625 C10.57372247 9.35554955 4.79699037 5.64079273 -1 2 C-0.67 1.34 -0.34 0.68 0 0 Z " fill="#0E5A57" transform="translate(49,59)"/>
<path d="M0 0 C-1.14108771 3.42326314 -1.65030519 3.68599051 -4.625 5.4375 C-5.69814453 6.07945312 -5.69814453 6.07945312 -6.79296875 6.734375 C-8.83165102 7.90346005 -10.88258329 9.04729777 -12.9375 10.1875 C-16.05547112 11.65931895 -16.05547112 11.65931895 -17 14 C-17.99 14 -18.98 14 -20 14 C-20 13.01 -20 12.02 -20 11 C-18.37939453 9.6496582 -18.37939453 9.6496582 -16.1328125 8.30078125 C-15.32972656 7.81416016 -14.52664062 7.32753906 -13.69921875 6.82617188 C-12.84972656 6.32666016 -12.00023437 5.82714844 -11.125 5.3125 C-10.28324219 4.80138672 -9.44148437 4.29027344 -8.57421875 3.76367188 C-2.29305741 0 -2.29305741 0 0 0 Z " fill="#0D5956" transform="translate(20,158)"/>
<path d="M0 0 C0.33 0 0.66 0 1 0 C1.03738281 0.64324219 1.07476562 1.28648438 1.11328125 1.94921875 C1.66353455 9.51250426 3.14346957 16.65561233 5 24 C5.66 24 6.32 24 7 24 C6.67 25.65 6.34 27.3 6 29 C3.83106765 26.83106765 3.35983198 25.56073312 2.4375 22.6875 C2.18871094 21.92824219 1.93992187 21.16898438 1.68359375 20.38671875 C0.29842833 15.55051262 -0.11342106 11.22868483 -0.0625 6.1875 C-0.05347656 5.02605469 -0.04445313 3.86460938 -0.03515625 2.66796875 C-0.02355469 1.78753906 -0.01195312 0.90710938 0 0 Z " fill="#125C5B" transform="translate(278,109)"/>
<path d="M0 0 C0 0.99 0 1.98 0 3 C-0.99 3.33 -1.98 3.66 -3 4 C-3 4.66 -3 5.32 -3 6 C-4.32 6.33 -5.64 6.66 -7 7 C-7 7.66 -7 8.32 -7 9 C-11.873261 10.5912689 -15.80790596 11.21192221 -21 11 C-21 10.34 -21 9.68 -21 9 C-20.23816406 8.85304687 -19.47632813 8.70609375 -18.69140625 8.5546875 C-11.33133079 6.95586961 -5.9387627 4.63403453 0 0 Z " fill="#0E5957" transform="translate(351,140)"/>
<path d="M0 0 C0.66 0 1.32 0 2 0 C2.20753906 0.75023438 2.41507813 1.50046875 2.62890625 2.2734375 C4.92744541 9.9095885 8.0729391 15.74429346 13 22 C12.67 22.66 12.34 23.32 12 24 C0 8.67961165 0 8.67961165 0 0 Z " fill="#115A59" transform="translate(622,126)"/>
<path d="M0 0 C0.33 0.66 0.66 1.32 1 2 C0.06421005 4.35981813 -0.93347808 6.69631264 -2 9 C-2.66 9 -3.32 9 -4 9 C-4.04898438 9.66386719 -4.09796875 10.32773438 -4.1484375 11.01171875 C-4.89103691 19.78207381 -4.89103691 19.78207381 -7 24 C-7.33 24 -7.66 24 -8 24 C-7.61836792 15.03164614 -5.68594046 7.11554834 0 0 Z " fill="#105A58" transform="translate(629,87)"/>
<path d="M0 0 C-2.78748519 1.67373751 -5.58064427 3.33776267 -8.375 5 C-9.1690625 5.47695312 -9.963125 5.95390625 -10.78125 6.4453125 C-11.92207031 7.12207031 -11.92207031 7.12207031 -13.0859375 7.8125 C-13.7876709 8.23144531 -14.4894043 8.65039062 -15.21240234 9.08203125 C-17 10 -17 10 -19 10 C-17.51319017 5.92012303 -15.28392609 4.7492727 -11.5 2.8125 C-10.03046875 2.04873047 -10.03046875 2.04873047 -8.53125 1.26953125 C-3.75433192 -1.12629958 -3.75433192 -1.12629958 0 0 Z " fill="#0E5B58" transform="translate(70,151)"/>
<path d="M0 0 C6 9 6 9 6 12 C6.99 12.33 7.98 12.66 9 13 C10.35368596 14.31266518 11.68799596 15.64567325 13 17 C13.66 17.33 14.32 17.66 15 18 C15 18.66 15 19.32 15 20 C10.83645043 18.64848129 8.65196884 16.93130608 5.8125 13.625 C5.13832031 12.85414063 4.46414063 12.08328125 3.76953125 11.2890625 C0.7816158 7.42390035 -0.27267885 4.90821924 0 0 Z " fill="#115957" transform="translate(491,137)"/>
<path d="M0 0 C0.99 0.99 1.98 1.98 3 3 C-0.53497862 4.17832621 -3.75893071 4.18397309 -7.4375 4.1875 C-8.75621094 4.20167969 -10.07492187 4.21585938 -11.43359375 4.23046875 C-14.77292352 4.01467416 -16.18046064 3.56374233 -19 2 C-17.71222656 1.93941406 -16.42445313 1.87882813 -15.09765625 1.81640625 C-13.41925841 1.73201753 -11.74087364 1.6473687 -10.0625 1.5625 C-8.78729492 1.50352539 -8.78729492 1.50352539 -7.48632812 1.44335938 C-6.67744141 1.40146484 -5.86855469 1.35957031 -5.03515625 1.31640625 C-3.91185913 1.26141968 -3.91185913 1.26141968 -2.76586914 1.20532227 C-0.97538674 1.18228937 -0.97538674 1.18228937 0 0 Z " fill="#115A56" transform="translate(529,157)"/>
<path d="M0 0 C3.05001831 3.66002197 7 9.07851471 7 14 C5.02 13.34 3.04 12.68 1 12 C0.83126522 10.56274129 0.66509263 9.12518162 0.5 7.6875 C0.4071875 6.88699219 0.314375 6.08648437 0.21875 5.26171875 C0 3 0 3 0 0 Z M1 13 C1.66 13 2.32 13 3 13 C2.67 13.66 2.34 14.32 2 15 C1.67 14.34 1.34 13.68 1 13 Z " fill="#0A5F5C" transform="translate(201,120)"/>
<path d="M0 0 C5.95324421 1.39331247 10.75741484 3.88535757 16 7 C16 7.66 16 8.32 16 9 C17.32 9.33 18.64 9.66 20 10 C20 10.66 20 11.32 20 12 C15.67578354 10.41555427 11.73557417 8.282196 7.75 6 C7.11320312 5.64421875 6.47640625 5.2884375 5.8203125 4.921875 C1.12118676 2.24237351 1.12118676 2.24237351 0 0 Z " fill="#0E5955" transform="translate(31,70)"/>
<path d="M0 0 C1.93166016 0.01740234 1.93166016 0.01740234 3.90234375 0.03515625 C5.19269531 0.04417969 6.48304688 0.05320312 7.8125 0.0625 C8.81152344 0.07410156 9.81054688 0.08570312 10.83984375 0.09765625 C10.83984375 0.75765625 10.83984375 1.41765625 10.83984375 2.09765625 C10.08058594 2.13503906 9.32132813 2.17242187 8.5390625 2.2109375 C7.54519531 2.27667969 6.55132813 2.34242187 5.52734375 2.41015625 C4.54121094 2.46816406 3.55507813 2.52617188 2.5390625 2.5859375 C-0.40400082 3.14388438 -1.34198624 3.78305757 -3.16015625 6.09765625 C-3.54234392 4.44150968 -3.87410727 2.77308601 -4.16015625 1.09765625 C-3.16015625 0.09765625 -3.16015625 0.09765625 0 0 Z " fill="#0F5658" transform="translate(708.16015625,72.90234375)"/>
<path d="M0 0 C1.7074998 1.28062485 3.37373596 2.61767557 5 4 C5 4.66 5 5.32 5 6 C5.66 6 6.32 6 7 6 C7.69906942 7.59915881 8.38389468 9.20455045 9.0625 10.8125 C9.44535156 11.70582031 9.82820313 12.59914063 10.22265625 13.51953125 C11 16 11 16 10 19 C7.74862848 15.62294272 6.07334504 12.12422495 4.31640625 8.47265625 C3.06659623 5.96768061 3.06659623 5.96768061 1.33984375 3.80859375 C0 2 0 2 0 0 Z " fill="#0C5552" transform="translate(352,89)"/>
<path d="M0 0 C-3.13630906 2.09087271 -5.78507349 3.0159838 -9.375 4.125 C-10.49648438 4.47820312 -11.61796875 4.83140625 -12.7734375 5.1953125 C-15.68650019 5.92181482 -18.02106411 6.16735595 -21 6 C-14.97809967 1.05788869 -7.66142233 -0.49965798 0 0 Z " fill="#135C5A" transform="translate(325,66)"/>
<path d="M0 0 C0.66 0 1.32 0 2 0 C-0.56311203 5.9370044 -5.6023187 10.01523804 -11.5 12.4375 C-12.325 12.623125 -13.15 12.80875 -14 13 C-14 12.34 -14 11.68 -14 11 C-11.35261084 9.5393715 -10.10551666 9 -7 9 C-7 8.34 -7 7.68 -7 7 C-4.625 4.375 -4.625 4.375 -2 2 C-1.34 2 -0.68 2 0 2 C0 1.34 0 0.68 0 0 Z " fill="#0E5A57" transform="translate(546,146)"/>
<path d="M0 0 C0.42410156 0.38671875 0.84820313 0.7734375 1.28515625 1.171875 C5.30304806 4.7394097 9.25403771 7.48173429 14 10 C14 10.33 14 10.66 14 11 C12.02 11 10.04 11 8 11 C8 10.34 8 9.68 8 9 C7.34 9 6.68 9 6 9 C6 8.34 6 7.68 6 7 C5.01 7 4.02 7 3 7 C0.64276511 4.46815512 0 3.52809907 0 0 Z " fill="#0E5B57" transform="translate(642,136)"/>
<path d="M0 0 C1.89957501 0.90888756 3.79450786 1.82748031 5.6875 2.75 C7.27111328 3.51570313 7.27111328 3.51570313 8.88671875 4.296875 C11.90003083 5.94531172 14.39287648 7.77499662 17 10 C12.23267992 9.48365821 9.13068774 8.17325312 5.125 5.5625 C4.15820312 4.94503906 3.19140625 4.32757813 2.1953125 3.69140625 C1.47085938 3.13324219 0.74640625 2.57507812 0 2 C0 1.34 0 0.68 0 0 Z " fill="#0C5B5B" transform="translate(31,49)"/>
<path d="M0 0 C0.99 0 1.98 0 3 0 C3.26554688 0.75925781 3.53109375 1.51851563 3.8046875 2.30078125 C4.15789062 3.29464844 4.51109375 4.28851563 4.875 5.3125 C5.22304687 6.29863281 5.57109375 7.28476563 5.9296875 8.30078125 C6.95305924 11.15594377 6.95305924 11.15594377 9 14 C9.125 16.6875 9.125 16.6875 9 19 C6.84416321 15.76624482 5.11056381 12.40510006 3.375 8.9375 C2.88773438 7.98133789 2.88773438 7.98133789 2.390625 7.00585938 C0 2.23967634 0 2.23967634 0 0 Z " fill="#125352" transform="translate(156,65)"/>
<path d="M0 0 C0.99 0.33 1.98 0.66 3 1 C-1.62 3.64 -6.24 6.28 -11 9 C-11.66 8.34 -12.32 7.68 -13 7 C-11.20856793 6.0204042 -9.41684696 5.0413367 -7.625 4.0625 C-6.62726562 3.51722656 -5.62953125 2.97195312 -4.6015625 2.41015625 C-3.07929654 1.5850241 -1.54871217 0.77435609 0 0 Z " fill="#0A5C59" transform="translate(46,162)"/>
<path d="M0 0 C0.99 0.99 1.98 1.98 3 3 C2.67 3.99 2.34 4.98 2 6 C1.01 6 0.02 6 -1 6 C-1.33 6.99 -1.66 7.98 -2 9 C-2.99 9.66 -3.98 10.32 -5 11 C-5.99 10.67 -6.98 10.34 -8 10 C-7.236875 9.46375 -6.47375 8.9275 -5.6875 8.375 C-2.77135526 5.79794186 -1.5294378 3.54185596 0 0 Z " fill="#0C5B5B" transform="translate(537,134)"/>
<path d="M0 0 C2.75 -0.25 2.75 -0.25 6 0 C8.25 1.9375 8.25 1.9375 10 4 C10.66 4.33 11.32 4.66 12 5 C11.67 5.99 11.34 6.98 11 8 C9.16399255 6.85845641 7.33125195 5.71165684 5.5 4.5625 C4.4790625 3.92441406 3.458125 3.28632813 2.40625 2.62890625 C1.6121875 2.09136719 0.818125 1.55382812 0 1 C0 0.67 0 0.34 0 0 Z " fill="#0E5A56" transform="translate(86,213)"/>
<path d="M0 0 C4.30764815 1.56641751 8.06171464 3.68336156 12 6 C8.87836832 7.37351794 7.66188419 6.89111525 4.3125 5.8125 C1 4 1 4 0.0625 1.8125 C0.041875 1.214375 0.02125 0.61625 0 0 Z " fill="#0B5F5B" transform="translate(72,73)"/>
<path d="M0 0 C0 3 0 3 -2.1171875 5.2265625 C-3.02726563 6.01804687 -3.93734375 6.80953125 -4.875 7.625 C-5.77992188 8.42164062 -6.68484375 9.21828125 -7.6171875 10.0390625 C-10 12 -10 12 -12 13 C-10.53438126 9.60312324 -8.63352456 7.39277314 -6 4.8125 C-4.948125 3.77029297 -4.948125 3.77029297 -3.875 2.70703125 C-2 1 -2 1 0 0 Z " fill="#0F5553" transform="translate(642,74)"/>
<path d="M0 0 C1.36959468 3.11271517 0.90994332 4.25666155 -0.25 7.5625 C-1.67358443 10.35882656 -2.6120352 12.06688563 -5 14 C-5.66 13.67 -6.32 13.34 -7 13 C-6.66226563 12.48050781 -6.32453125 11.96101562 -5.9765625 11.42578125 C-3.60108299 7.71151993 -1.44237185 4.19599085 0 0 Z " fill="#125A58" transform="translate(703,124)"/>
<path d="M0 0 C0 0.99 0 1.98 0 3 C-1.609375 4.421875 -1.609375 4.421875 -3.75 5.75 C-4.44609375 6.19859375 -5.1421875 6.6471875 -5.859375 7.109375 C-8 8 -8 8 -12 7 C-8.04 4.69 -4.08 2.38 0 0 Z " fill="#105957" transform="translate(69,128)"/>
<path d="M0 0 C2.31 0 4.62 0 7 0 C6.01 2.31 5.02 4.62 4 7 C3.34 7 2.68 7 2 7 C2.33 5.35 2.66 3.7 3 2 C2.01 2 1.02 2 0 2 C0 1.34 0 0.68 0 0 Z " fill="#0C5A59" transform="translate(262,65)"/>
<path d="M0 0 C0.609375 1.77734375 0.609375 1.77734375 1 4 C-0.8951859 7.858057 -2.69020032 11.18667027 -6 14 C-6.66 13.67 -7.32 13.34 -8 13 C-7.4225 12.34 -6.845 11.68 -6.25 11 C-3.64258671 7.52344894 -1.83069502 3.92430901 0 0 Z " fill="#135653" transform="translate(360,126)"/>
<path d="M0 0 C2.32472205 2.85306797 3.7508258 5.54074837 5 9 C3.02 8.34 1.04 7.68 -1 7 C-0.67 4.69 -0.34 2.38 0 0 Z M-3 7 C-1 8 -1 8 -1 8 Z " fill="#105E5E" transform="translate(637,127)"/>
<path d="M0 0 C1.46366342 0.39753821 2.9208935 0.81881384 4.375 1.25 C5.18710937 1.48203125 5.99921875 1.7140625 6.8359375 1.953125 C9.45785454 3.2214892 9.99382318 4.32423308 11 7 C10.278125 6.505 9.55625 6.01 8.8125 5.5 C5.85151341 3.92080715 4.28746971 3.71821688 1 4 C0.67 2.68 0.34 1.36 0 0 Z " fill="#085F5D" transform="translate(692,73)"/>
<path d="M0 0 C-0.3125 1.9375 -0.3125 1.9375 -1 4 C-4 5 -4 5 -6.1875 4.0625 C-6.785625 3.711875 -7.38375 3.36125 -8 3 C-3.375 0 -3.375 0 0 0 Z " fill="#0B5F5E" transform="translate(102,0)"/>
<path d="M0 0 C0.66 0.33 1.32 0.66 2 1 C0.68 4.3 -0.64 7.6 -2 11 C-2.66 10.67 -3.32 10.34 -4 10 C-3.5205537 5.78087253 -2.83374881 3.20336822 0 0 Z " fill="#0D5C56" transform="translate(639,96)"/>
<path d="M0 0 C0.66 0.33 1.32 0.66 2 1 C0.74057614 2.19959375 -0.53295286 3.38439443 -1.8125 4.5625 C-2.87404297 5.55443359 -2.87404297 5.55443359 -3.95703125 6.56640625 C-4.63121094 7.03949219 -5.30539062 7.51257813 -6 8 C-6.99 7.67 -7.98 7.34 -9 7 C-6.03 4.69 -3.06 2.38 0 0 Z " fill="#125957" transform="translate(302,72)"/>
<path d="M0 0 C4.61513112 1.31860889 8.09897612 3.21355437 12 6 C10.1875 6.6875 10.1875 6.6875 8 7 C6.5625 5.75 6.5625 5.75 5 4 C3.33675599 2.99431758 1.67063747 1.99335201 0 1 C0 0.67 0 0.34 0 0 Z " fill="#115957" transform="translate(347,70)"/>
<path d="M0 0 C0.66 0.33 1.32 0.66 2 1 C1.21516341 2.48280196 0.42190666 3.9611498 -0.375 5.4375 C-0.81585938 6.26121094 -1.25671875 7.08492187 -1.7109375 7.93359375 C-3 10 -3 10 -5 11 C-4.32902328 6.80639551 -2.1441606 3.59665648 0 0 Z " fill="#125A58" transform="translate(372,133)"/>
<path d="M0 0 C0.66 0.66 1.32 1.32 2 2 C0.73058503 5.91402949 -0.51167694 7.79072873 -4 10 C-2.8905928 6.51329166 -1.73662334 3.22515763 0 0 Z " fill="#0C5C5A" transform="translate(217,132)"/>
<path d="M0 0 C-3.23521742 2.48862878 -6.59260295 4.75421558 -10 7 C-10.33 6.34 -10.66 5.68 -11 5 C-10.34 5 -9.68 5 -9 5 C-9 4.34 -9 3.68 -9 3 C-6.04341306 0.15291628 -4.05047276 -0.3375394 0 0 Z " fill="#0E5D58" transform="translate(314,83)"/>
<path d="M0 0 C0 0.66 0 1.32 0 2 C-2.97 2 -5.94 2 -9 2 C-9.33 1.34 -9.66 0.68 -10 0 C-6.7169902 -1.6415049 -3.57454967 -0.51888624 0 0 Z " fill="#095454" transform="translate(342,67)"/>
<path d="M0 0 C0.66 0 1.32 0 2 0 C1.38461538 5.53846154 1.38461538 5.53846154 -0.5625 7.875 C-1.036875 8.24625 -1.51125 8.6175 -2 9 C-2 6.69 -2 4.38 -2 2 C-1.34 2 -0.68 2 0 2 C0 1.34 0 0.68 0 0 Z " fill="#115959" transform="translate(550,137)"/>
<path d="M0 0 C1.32 0 2.64 0 4 0 C4.103125 0.639375 4.20625 1.27875 4.3125 1.9375 C4.539375 2.618125 4.76625 3.29875 5 4 C5.99 4.33 6.98 4.66 8 5 C2.46153846 4.38461538 2.46153846 4.38461538 0.125 2.4375 C-0.24625 1.963125 -0.6175 1.48875 -1 1 C-0.67 0.67 -0.34 0.34 0 0 Z " fill="#0E605E" transform="translate(82,99)"/>
<path d="M0 0 C2.64 0 5.28 0 8 0 C8 0.66 8 1.32 8 2 C6.02 2 4.04 2 2 2 C2 2.66 2 3.32 2 4 C1.34 4 0.68 4 0 4 C0 2.68 0 1.36 0 0 Z " fill="#0E5553" transform="translate(582,65)"/>
<path d="M0 0 C3 1 3 1 4.25 3.3125 C5.04631835 6.16597407 4.8214856 7.24802325 4 10 C3.32845067 8.71086513 2.66291141 7.41859796 2 6.125 C1.62875 5.40570313 1.2575 4.68640625 0.875 3.9453125 C0 2 0 2 0 0 Z " fill="#0F5A57" transform="translate(184,122)"/>
<path d="M0 0 C3 1 3 1 4.25 3.3125 C5.04631835 6.16597407 4.8214856 7.24802325 4 10 C3.32845067 8.71086513 2.66291141 7.41859796 2 6.125 C1.62875 5.40570313 1.2575 4.68640625 0.875 3.9453125 C0 2 0 2 0 0 Z " fill="#115B58" transform="translate(176,106)"/>
<path d="M0 0 C0.66 0 1.32 0 2 0 C0.84414715 3.91211733 -0.35534962 6.8745041 -3 10 C-2.25 3.375 -2.25 3.375 0 0 Z " fill="#105A56" transform="translate(240,119)"/>
<path d="M0 0 C1.17539996 0.92652701 2.34010577 1.86663387 3.5 2.8125 C4.1496875 3.33457031 4.799375 3.85664062 5.46875 4.39453125 C7 6 7 6 7 9 C3.26115668 6.34345343 1.35021826 4.41889613 0 0 Z " fill="#0F5958" transform="translate(359,77)"/>
<path d="M0 0 C0.66 0.99 1.32 1.98 2 3 C1.67 3.99 1.34 4.98 1 6 C0.34 6 -0.32 6 -1 6 C-1.33 7.32 -1.66 8.64 -2 10 C-1.85950482 8.52031676 -1.71245174 7.04125484 -1.5625 5.5625 C-1.48128906 4.73878906 -1.40007813 3.91507812 -1.31640625 3.06640625 C-1 1 -1 1 0 0 Z " fill="#0E5E5D" transform="translate(706,112)"/>
<path d="M0 0 C0.33 0 0.66 0 1 0 C1 2.64 1 5.28 1 8 C0.67 8 0.34 8 0 8 C0 5.36 0 2.72 0 0 Z " fill="#006060" transform="translate(547,67)"/>
<path d="M0 0 C2.31 0 4.62 0 7 0 C7 0.33 7 0.66 7 1 C4.69 1 2.38 1 0 1 C0 0.67 0 0.34 0 0 Z " fill="#104E4E" transform="translate(712,158)"/>
<path d="M0 0 C4 1 4 1 4 1 Z " fill="#252525" transform="translate(705,158)"/>
<path d="M0 0 C1 4 1 4 1 4 Z " fill="#002020" transform="translate(547,76)"/>
<path d="" fill="#000000" transform="translate(0,0)"/>
<path d="M0 0 C2 1 2 1 2 1 Z " fill="#000000" transform="translate(436,162)"/>
<path d="M0 0 C2 1 2 1 2 1 Z " fill="#008080" transform="translate(697,157)"/>
<path d="" fill="#000000" transform="translate(0,0)"/>
<path d="" fill="#004040" transform="translate(0,0)"/>
<path d="" fill="#000000" transform="translate(0,0)"/>
<path d="" fill="#000000" transform="translate(0,0)"/>
<path d="" fill="#000000" transform="translate(0,0)"/>
<path d="" fill="#000000" transform="translate(0,0)"/>
<path d="" fill="#000000" transform="translate(0,0)"/>
<path d="" fill="#000000" transform="translate(0,0)"/>
<path d="" fill="#000000" transform="translate(0,0)"/>
<path d="" fill="#008080" transform="translate(0,0)"/>
<path d="" fill="#008080" transform="translate(0,0)"/>
<path d="" fill="#000000" transform="translate(0,0)"/>
<path d="" fill="#555555" transform="translate(0,0)"/>
<path d="" fill="#000000" transform="translate(0,0)"/>
<path d="" fill="#000000" transform="translate(0,0)"/>
<path d="" fill="#000000" transform="translate(0,0)"/>
<path d="" fill="#008080" transform="translate(0,0)"/>
<path d="" fill="#000000" transform="translate(0,0)"/>
<path d="" fill="#000000" transform="translate(0,0)"/>
<path d="" fill="#008080" transform="translate(0,0)"/>
<path d="" fill="#000000" transform="translate(0,0)"/>
<path d="" fill="#000000" transform="translate(0,0)"/>
<path d="" fill="#000000" transform="translate(0,0)"/>
<path d="" fill="#000000" transform="translate(0,0)"/>
<path d="" fill="#000000" transform="translate(0,0)"/>
<path d="" fill="#000000" transform="translate(0,0)"/>
<path d="" fill="#000000" transform="translate(0,0)"/>
<path d="" fill="#000000" transform="translate(0,0)"/>
<path d="" fill="#000000" transform="translate(0,0)"/>
<path d="" fill="#000000" transform="translate(0,0)"/>
<path d="" fill="#008080" transform="translate(0,0)"/>
<path d="" fill="#008080" transform="translate(0,0)"/>
<path d="" fill="#008080" transform="translate(0,0)"/>
<path d="" fill="#555555" transform="translate(0,0)"/>
<path d="" fill="#000000" transform="translate(0,0)"/>
<path d="" fill="#000000" transform="translate(0,0)"/>
<path d="" fill="#555555" transform="translate(0,0)"/>
<path d="" fill="#000000" transform="translate(0,0)"/>
<path d="" fill="#000000" transform="translate(0,0)"/>
<path d="" fill="#000000" transform="translate(0,0)"/>
<path d="" fill="#000000" transform="translate(0,0)"/>
<path d="" fill="#000000" transform="translate(0,0)"/>
<path d="" fill="#000000" transform="translate(0,0)"/>
<path d="" fill="#808080" transform="translate(0,0)"/>
<path d="" fill="#000000" transform="translate(0,0)"/>
<path d="" fill="#000000" transform="translate(0,0)"/>
<path d="" fill="#008080" transform="translate(0,0)"/>
<path d="" fill="#000000" transform="translate(0,0)"/>
<path d="" fill="#000000" transform="translate(0,0)"/>
</svg>
